<?xml version="1.0" standalone="no"?><!DOCTYPE svg PUBLIC "-//W3C//DTD SVG 1.1//EN" "http://www.w3.org/Graphics/SVG/1.1/DTD/svg11.dtd"><svg class="icon" width="130" height="130" viewBox="0 0 1116 1024" version="1.1" xmlns="http://www.w3.org/2000/svg"><path d="M627.644026 869.895675l-84.375846 42.144068c-9.604111 5.306381-21.400942-1.666467-21.400942-12.630064v-309.611992c0-4.9994 2.587409-9.604111 6.79743-12.235374l378.989636-223.17499c9.604111-6.008051 22.058758 0.920942 22.058758 12.235375v142.65833c0 7.981499 6.446595 14.428094 14.428094 14.428094h32.539957c7.981499 0 14.428094-6.446595 14.428095-14.428094V300.577987c0-5.087109-2.675118-9.779529-7.016703-12.410792L521.867238 11.709122s-35.083512-26.312634-74.552463 0L21.18167 262.336959A42.981687 42.981687 0 0 0 0 299.393919v414.423982c0 5.130964 2.762827 9.911092 7.19212 12.498502l485.073405 280.843511c4.69242 2.718972 10.525054 2.587409 15.08591-0.394689l135.07152-74.245482c4.122313-2.675118 6.578158-7.235974 6.578158-12.103812v-37.846338c0-11.007452-11.796831-17.936445-21.400942-12.630064zM125.77439 280.141842l362.412676-215.807452c4.517002-2.675118 10.174218-2.675118 14.691221 0.043854l139.413105 79.990407c9.121713 5.525653 9.165567 18.725824 0.131563 24.339186l-358.728908 215.544326c-4.560857 2.806681-10.261927 2.850535-14.866638 0.131563L125.730535 304.656445c-9.253276-5.569507-9.209422-18.988951 0-24.470749zM456.085653 884.762313c0 15.568308-16.752377 25.391692-30.347238 17.848736L71.877345 701.670236a20.379135 20.379135 0 0 1-10.481199-17.848737V366.929679c0-15.656017 16.88394-25.4794 30.4788-17.761028l353.861071 209.229293c6.402741 3.639914 10.349636 10.39349 10.349636 17.761028v308.603341z m46.880343-365.394776c-4.560857 2.675118-10.218073 2.631263-14.735075-0.087708L340.704754 436.351178c-9.297131-5.613362-9.297131-19.164368 0.043854-24.733876l358.290364-215.895161c4.341585-2.587409 9.779529-2.718972 14.252677-0.30698l154.367452 84.814389c9.911092 5.350236 10.174218 19.471349 0.438544 25.128566l-365.131649 214.009421zM1089.167623 789.72985c-8.376188-0.043854-16.752377-0.131563-25.128565 0.043854-3.113662 0.087709-4.823983-0.789379-5.701071-3.90304-1.666467-5.744925-4.034604-11.314433-6.885139-16.620814-1.40334-2.675118-1.140214-4.341585 1.052505-6.49045 6.79743-6.622013 13.726424-13.200171 19.997602-20.304582 9.297131-10.568908 8.902441-24.383041-0.745525-34.601114-7.630664-8.069208-15.524454-15.962998-23.593661-23.593661-10.875889-10.261927-26.049507-9.911092-37.05696 0.70167-6.315032 6.051906-12.454647 12.279229-18.550406 18.550407-1.754176 1.841884-3.245225 2.105011-5.525654 0.920942-5.657216-2.938244-11.533704-5.437944-17.629464-7.323683-2.587409-0.789379-3.464497-2.236574-3.420643-4.911692 0.131563-8.858587 0.131563-17.761028 0-26.619614-0.219272-15.129764-11.095161-25.917944-26.18107-26.005653-10.39349-0.043854-20.786981 0.350835-31.136617-0.087709-14.471949-0.657816-27.365139 10.700471-27.102013 27.102013 0.131563 8.507752-0.087709 17.015503 0.087709 25.523255 0.043854 2.89439-0.964797 4.29773-3.683769 5.130963-6.008051 1.841884-11.752976 4.253876-17.278629 7.19212-2.4997 1.315632-3.990749 0.745525-5.832634-1.09636-7.104411-7.016702-13.726424-14.559657-21.444797-20.962398-8.946296-7.499101-22.234176-7.981499-31.136616-0.438544a247.281747 247.281747 0 0 0-28.373791 28.329936c-7.762227 9.121713-7.279829 22.190321 0.438544 31.443597 6.315032 7.586809 13.770278 14.164968 20.743127 21.137816 1.973448 1.973448 2.4997 3.552206 1.140214 6.139615-2.850535 5.437944-5.262527 11.095161-7.016703 16.927794-0.877088 2.850535-2.324283 3.946895-5.350235 3.859186-8.858587-0.175418-17.761028-0.263126-26.619615 0-10.305782 0.263126-18.155717 4.911692-23.067409 14.164968-0.920942 1.754176-1.578758 3.639914-2.368137 5.481799v45.038458c1.447195 3.289079 2.675118 6.709722 4.955546 9.604112 5.306381 6.753576 12.410792 9.911092 20.830835 10.042655 8.858587 0.131563 17.761028 0.131563 26.619615 0 2.675118 0 4.078458 0.877088 4.911692 3.464497 1.885739 6.09576 4.385439 11.972248 7.323683 17.629464 1.184069 2.324283 0.833233 3.727623-0.964797 5.525653-7.104411 7.19212-14.735075 13.901842-21.225524 21.707923-7.455246 8.902441-7.89379 22.234176-0.306981 31.136617 8.683169 10.174218 18.155717 19.690621 28.329936 28.329936 9.121713 7.718373 22.146467 7.235974 31.399743-0.526253 7.586809-6.358887 14.164968-13.726424 21.137815-20.699272 1.973448-1.973448 3.59606-2.411991 6.139615-1.09636 5.657216 2.982099 11.577559 5.350236 17.629465 7.279829 2.280428 0.745525 3.157516 1.973448 3.113661 4.385439-0.087709 7.367537 0.263126 14.778929-0.087708 22.102613-0.70167 15.042056 5.130964 25.610964 19.778329 30.654218h45.038459c14.735075-4.955546 20.436146-15.656017 19.778329-30.654218-0.306981-7.367537 0-14.735075-0.087708-22.146467 0-2.368137 0.833233-3.639914 3.113661-4.385439 6.183469-1.973448 12.235375-4.429293 17.9803-7.455246 2.324283-1.184069 3.771478-0.833233 5.525653 0.964796 6.008051 6.183469 12.103812 12.323084 18.287281 18.331135 10.174218 9.867238 25.084711 11.358287 34.995803 2.806681 9.823383-8.463897 19.07666-17.717173 27.540556-27.540557 7.937645-9.209422 7.630664-22.409593-0.175417-31.706724-6.358887-7.586809-13.770278-14.164968-20.743127-21.137815-1.973448-1.973448-2.543555-3.508351-1.184068-6.139615 2.850535-5.39409 5.306381-11.051306 7.016702-16.927794 0.920942-3.157516 2.675118-3.946895 5.744925-3.903041 8.727024 0.175418 17.497901 0.175418 26.26878 0 14.910493-0.263126 25.654818-11.182869 25.742527-26.049508 0.043854-10.481199 0-21.006253 0-31.487451-0.043854-15.962998-10.78818-26.707323-26.882741-26.795033z m-2.192719 54.598715c0 7.235974-2.148865 9.516403-8.99015 9.560257h-41.135418c-5.657216 0-8.025353 1.841884-9.560257 7.455247-2.4997 8.99015-5.832634 17.629465-10.174218 25.830235-3.025953 5.701071-2.543555 8.332334 1.79803 12.893191 6.578158 6.928994 21.971049 22.585011 28.549208 29.557858 4.473148 4.736274 4.473148 8.28848 0 13.024754-5.832634 6.139615-11.665268 12.279229-17.497902 18.374989-4.429293 4.604711-7.89379 4.604711-12.410792-0.131563-6.534304-6.841285-21.795632-22.453448-28.329936-29.294732-4.560857-4.736274-7.016702-5.218672-12.542356-2.017302-7.937645 4.604711-16.226124 8.113062-24.953147 10.744325-4.823983 1.447195-6.665867 4.034604-6.665867 9.340985-0.043854 10.130364 0 29.031606 0 39.16197 0 6.578158-2.280428 8.946296-8.551606 8.99015-8.463897 0-16.927794 0.043854-25.435547 0-5.788779 0-8.156916-2.543555-8.20077-8.683169v-23.988351-15.524454c-0.043854-5.262527-1.885739-7.89379-6.753576-9.340985-8.683169-2.631263-17.015503-6.139615-24.953148-10.744325-5.437944-3.157516-8.025353-2.631263-12.542356 2.061156-6.446595 6.753576-21.664069 22.321884-28.110663 29.07546-4.867837 5.087109-8.025353 5.130964-12.849337 0.087709-5.832634-6.09576-11.709122-12.235375-17.497901-18.374989-4.253876-4.473148-4.253876-8.025353 0-12.498501 6.578158-6.972848 21.971049-22.628865 28.549208-29.557859 4.648565-4.911692 5.087109-7.411392 1.929593-13.463298-4.341585-8.200771-7.630664-16.840086-10.08651-25.87409-1.447195-5.218672-3.903041-7.148266-9.165567-7.148265h-41.793234c-6.402741 0-8.683169-2.411991-8.683169-9.165568v-26.005653c0-6.709722 2.280428-9.034004 8.814732-9.077858h41.135418c5.876488 0 8.156916-1.754176 9.779529-7.630664 2.4997-8.99015 5.876488-17.629465 10.174218-25.830236 2.89439-5.481799 2.455846-8.200771-1.754175-12.630064-6.578158-6.972848-21.971049-22.628865-28.549208-29.557859-4.69242-4.955546-4.69242-8.28848 0-13.200171 5.920343-6.227323 11.796831-12.454647 17.761028-18.638116 4.122313-4.29773 7.499101-4.29773 11.665267 0 6.709722 6.972848 22.102612 22.804283 28.812335 29.777131 4.517002 4.69242 6.972848 5.130964 12.542355 1.885739 7.849936-4.560857 16.050707-8.025353 24.646167-10.612762 5.130964-1.578758 6.928994-4.122313 6.928994-9.867238v-38.811135c0-6.358887 2.324283-8.858587 8.332334-8.902441 8.463897-0.043854 16.927794-0.043854 25.435546 0 6.051906 0 8.376188 2.4997 8.420043 8.770878v38.811135c0 5.920343 1.754176 8.376188 7.148265 10.042655 8.59546 2.631263 16.796231 6.139615 24.602313 10.656617 5.39409 3.113662 7.89379 2.631263 12.279229-1.929594 6.534304-6.79743 21.795632-22.453448 28.329936-29.294732 4.780128-4.955546 8.069208-4.955546 12.89319 0.087709 5.832634 6.09576 11.709122 12.235375 17.497902 18.374989 4.034604 4.29773 4.078458 7.981499 0 12.279229-6.622013 7.060557-22.102612 22.760428-28.76848 29.820985-4.473148 4.736274-4.911692 7.323683-1.841884 13.200172 4.385439 8.332334 7.718373 17.059358 10.218072 26.18107 1.359486 4.9994 3.903041 6.928994 8.946296 6.972848 9.428694 0.043854 32.013704 0 41.486253 0 7.060557 0 9.121713 2.236574 9.165567 9.735675v24.997002zM924.011991 758.417816c-40.653019-0.087709-73.543812 32.320685-73.719229 73.543811-0.175418 40.433747 32.627666 73.412248 73.412249 73.499958 40.696874 0.087709 73.368394-32.320685 73.763083-73.543812-0.087709-40.433747-32.67152-73.412248-73.456103-73.499957z m-0.043854 115.775589c-23.68137 0.043854-42.451049-18.638116-42.494904-42.319486-0.043854-23.68137 18.638116-42.451049 42.319486-42.494904 23.68137-0.043854 42.451049 18.638116 42.494904 42.319486 0.043854 23.68137-18.638116 42.451049-42.319486 42.494904z" /></svg>