<?xml version="1.0" standalone="no"?><!DOCTYPE svg PUBLIC "-//W3C//DTD SVG 1.1//EN" "http://www.w3.org/Graphics/SVG/1.1/DTD/svg11.dtd"><svg class="icon" width="130" height="130" viewBox="0 0 1024 1024" version="1.1" xmlns="http://www.w3.org/2000/svg"><path d="M944.64 1021.44h-839.68c-14.336 0-25.6-11.264-25.6-25.6V38.4c0-14.336 11.264-25.6 25.6-25.6h839.68c14.336 0 25.6 11.264 25.6 25.6v957.44c0 14.336-11.264 25.6-25.6 25.6z m-814.08-51.2h788.48v-906.24h-788.48v906.24zM944.64 355.84h-839.68c-14.336 0-25.6-11.264-25.6-25.6v-291.84c0-14.336 11.264-25.6 25.6-25.6h839.68c14.336 0 25.6 11.264 25.6 25.6v291.84c0 14.336-11.264 25.6-25.6 25.6z m-814.08-51.2h788.48v-240.64h-788.48v240.64zM499.2 199.68h51.2v286.72h-51.2zM522.752 168.96m-57.856 0a57.856 57.856 0 1 0 115.712 0 57.856 57.856 0 1 0-115.712 0ZM522.752 252.416c-46.08 0-83.456-37.376-83.456-83.456s37.376-83.456 83.456-83.456S606.208 122.88 606.208 168.96s-37.376 83.456-83.456 83.456z m0-115.712c-17.92 0-32.256 14.336-32.256 32.256s14.336 32.256 32.256 32.256 32.256-14.336 32.256-32.256-14.336-32.256-32.256-32.256zM522.752 473.088m-57.856 0a57.856 57.856 0 1 0 115.712 0 57.856 57.856 0 1 0-115.712 0ZM522.752 556.544c-46.08 0-83.456-37.376-83.456-83.456s37.376-83.456 83.456-83.456 83.456 37.376 83.456 83.456-37.376 83.456-83.456 83.456z m0-115.712c-17.92 0-32.256 14.336-32.256 32.256s14.336 32.256 32.256 32.256 32.256-14.336 32.256-32.256-14.336-32.256-32.256-32.256z" /></svg>