<?xml version="1.0" standalone="no"?><!DOCTYPE svg PUBLIC "-//W3C//DTD SVG 1.1//EN" "http://www.w3.org/Graphics/SVG/1.1/DTD/svg11.dtd"><svg class="icon" width="200px" height="200.00px" viewBox="0 0 1024 1024" version="1.1" xmlns="http://www.w3.org/2000/svg"><path d="M537.5 70.6c-15.7-9-35.1-9-50.8 0L131.4 248.4c-15.7 9-25.4 25.7-25.4 43.8v408c0 18.1 9.7 34.8 25.4 43.8l355.3 204c15.7 9 35.1 9 50.8 0l355.3-204c15.7-9 25.4-25.7 25.4-43.8v-408c0-18.1-9.7-34.8-25.4-43.8L537.5 70.6z m317.3 589.1c0 14.5-8.2 28-21.5 35.3L533.5 859.1c-13.4 7.3-29.5 7.3-42.9 0L190.9 695c-13.3-7.3-21.4-20.7-21.4-35.2V331.5c0-14.5 8.2-28 21.5-35.2l299.7-151c13.4-7.3 29.5-7.3 42.9 0l299.8 151c13.3 7.3 21.4 20.7 21.4 35.2v328.2z m-703-373.1l353.7 163.8 366.8-163.8v412.7l-321 183.4h-45.9L151.8 699.3V286.6z m0 0" /></svg>