<?xml version="1.0" standalone="no"?><!DOCTYPE svg PUBLIC "-//W3C//DTD SVG 1.1//EN" "http://www.w3.org/Graphics/SVG/1.1/DTD/svg11.dtd"><svg t="1710381108928" class="icon" viewBox="0 0 1024 1024" version="1.1" xmlns="http://www.w3.org/2000/svg" p-id="4273" xmlns:xlink="http://www.w3.org/1999/xlink" width="200" height="200"><path d="M144.8 146.2h589.6v228.2h70V128.2c0-28.7-23.3-52-52-52H126.8c-28.7 0-52 23.3-52 52v707.6c0 28.7 23.3 52 52 52h290.1v-70H144.8V146.2z" p-id="4274"></path><path d="M880.6 709.2c-27.7-30.1-60.9-52.3-97.2-65.3 29.8-24.9 49.1-63.6 49.1-106.9 0-74.9-57.3-135.8-127.6-135.8S577.3 462 577.3 536.9c0 43.4 19.2 82.1 49.1 106.9-36.3 13-69.5 35.2-97.2 65.3-46 50.1-71.4 116.5-71.4 186.9 0 5.1 0.1 10.2 0.4 15.3 1.1 21.2 20.8 36.5 41.7 32.4 17.2-3.3 29.1-18.8 28.2-36.3-0.2-3.8-0.3-7.6-0.3-11.4 0-108 79.5-195.8 177.1-195.8 97.7 0 177.1 87.9 177.1 195.8 0 3.8-0.1 7.6-0.3 11.4-0.9 17.5 11.1 33 28.2 36.3 20.8 4.1 40.5-11.2 41.7-32.4 0.3-5.1 0.4-10.2 0.4-15.3 0-70.4-25.3-136.8-71.4-186.8zM704.9 471.1c31.8 0 57.6 29.5 57.6 65.8s-25.8 65.8-57.6 65.8-57.6-29.5-57.6-65.8 25.8-65.8 57.6-65.8zM271.6 344.5L222.1 394l157.2 157.2 277-277-49.5-49.5-227.5 227.5z" p-id="4275"></path></svg>