<?xml version="1.0" standalone="no"?><!DOCTYPE svg PUBLIC "-//W3C//DTD SVG 1.1//EN" "http://www.w3.org/Graphics/SVG/1.1/DTD/svg11.dtd"><svg class="icon" width="200px" height="200.00px" viewBox="0 0 1024 1024" version="1.1" xmlns="http://www.w3.org/2000/svg"><path d="M921.6 51.2a102.4 102.4 0 0 1 102.4 102.4v256h-435.2a128 128 0 1 0 0 256H1024v204.8a102.4 102.4 0 0 1-102.4 102.4H153.6a102.4 102.4 0 0 1-102.4-102.4V153.6a102.4 102.4 0 0 1 102.4-102.4h768z m-332.8 409.6a76.8 76.8 0 1 1 0 153.6 76.8 76.8 0 0 1 0-153.6z"  /></svg>