<?xml version="1.0" standalone="no"?><!DOCTYPE svg PUBLIC "-//W3C//DTD SVG 1.1//EN" "http://www.w3.org/Graphics/SVG/1.1/DTD/svg11.dtd"><svg class="icon" width="200px" height="200.00px" viewBox="0 0 1024 1024" version="1.1" xmlns="http://www.w3.org/2000/svg"><path d="M896 0 128 0C57.6 0 0 64 0 134.4L0 896c0 70.4 57.6 128 128 128l761.6 0c70.4 0 134.4-57.6 134.4-128L1024 128C1024 57.6 966.4 0 896 0zM768 704 256 704c-19.2 0-32-12.8-32-32 0-19.2 12.8-32 32-32l512 0c19.2 0 32 12.8 32 32C800 691.2 787.2 704 768 704zM768 512 256 512c-19.2 0-32-12.8-32-32 0-19.2 12.8-32 32-32l512 0c19.2 0 32 12.8 32 32C800 499.2 787.2 512 768 512zM768 320 256 320c-19.2 0-32-12.8-32-32 0-19.2 12.8-32 32-32l512 0c19.2 0 32 12.8 32 32C800 307.2 787.2 320 768 320z" /></svg>