<?xml version="1.0" standalone="no"?><!DOCTYPE svg PUBLIC "-//W3C//DTD SVG 1.1//EN" "http://www.w3.org/Graphics/SVG/1.1/DTD/svg11.dtd"><svg class="icon" width="200px" height="200.00px" viewBox="0 0 1024 1024" version="1.1" xmlns="http://www.w3.org/2000/svg"><path d="M512 508c-59.3 0-115.05-23.09-156.98-65.02C313.09 401.05 290 345.3 290 286s23.09-115.05 65.02-156.98C396.95 87.09 452.7 64 512 64s115.05 23.09 156.98 65.02C710.91 170.95 734 226.7 734 286s-23.09 115.05-65.02 156.98C627.05 484.91 571.3 508 512 508z m0-380c-87.12 0-158 70.88-158 158s70.88 158 158 158 158-70.88 158-158-70.88-158-158-158zM927.99 960H96.01c-8.53 0-16.71-3.41-22.72-9.46a31.992 31.992 0 0 1-9.28-22.8c0.46-56.5 12.75-111.25 36.52-162.74 22.89-49.58 55.41-94.04 96.66-132.14 41.1-37.96 88.85-67.75 141.92-88.52C393.92 522.88 452.09 512 512 512c9.28 0 19.23 0.36 29.57 1.08 17.63 1.22 30.93 16.51 29.71 34.14s-16.51 30.95-34.14 29.71c-8.88-0.62-17.34-0.93-25.14-0.93-198.39 0-363 140.82-382.14 320h764.3c-0.6-5.67-1.34-11.32-2.23-16.92-2.77-17.46 9.14-33.85 26.6-36.61 17.45-2.76 33.85 9.14 36.61 26.6 3.06 19.3 4.69 39.04 4.85 58.67 0.07 8.53-3.27 16.74-9.28 22.8a32.035 32.035 0 0 1-22.72 9.46zM512.01 895.54L407.57 772.11l104.45-196.22 62.7 117.82c8.3 15.6 2.39 34.98-13.22 43.28-15.6 8.3-34.98 2.38-43.28-13.22l-6.21-11.67-27.57 51.78L512 796.45l13.01-15.37c11.42-13.49 31.61-15.17 45.1-3.76s15.17 31.61 3.76 45.1l-61.86 73.12zM769 871c-47.7 0-93.05-10.4-127.68-29.29-18.49-10.08-33.3-22.21-44.02-36.03-12.56-16.2-19.2-34.64-19.2-53.34 0-28.27 15.09-55.29 42.49-76.06l38.67 51c-6.41 4.86-17.16 14.57-17.16 25.06 0 10.58 11.16 22.99 29.86 33.19C696.99 799.17 732.36 807 769 807s72.01-7.83 97.03-21.48c18.7-10.2 29.86-22.61 29.86-33.19 0-10.49-10.75-20.2-17.16-25.06l38.67-51c27.4 20.77 42.49 47.79 42.49 76.06 0 18.7-6.64 37.15-19.2 53.34-10.72 13.83-25.53 25.95-44.02 36.03C862.05 860.6 816.7 871 769 871zM769 769.88c-47.7 0-93.05-10.4-127.68-29.29-18.49-10.08-33.3-22.21-44.02-36.03-12.56-16.2-19.2-34.64-19.2-53.34 0-28.27 15.09-55.29 42.49-76.06l38.67 51c-6.41 4.86-17.16 14.57-17.16 25.06 0 10.58 11.16 22.99 29.86 33.19 25.02 13.65 60.39 21.48 97.03 21.48s72.01-7.83 97.03-21.48c18.7-10.2 29.86-22.61 29.86-33.19 0-10.49-10.75-20.2-17.16-25.06l38.67-51c27.4 20.77 42.49 47.79 42.49 76.06 0 18.7-6.64 37.15-19.2 53.34-10.72 13.83-25.53 25.95-44.02 36.03-34.61 18.89-79.96 29.29-127.66 29.29zM769 668.77c-47.09 0-91.86-8.94-126.07-25.17-41.8-19.83-64.82-49.03-64.82-82.22s23.02-62.38 64.82-82.22C677.14 462.94 721.91 454 769 454s91.86 8.94 126.07 25.17c41.8 19.83 64.82 49.03 64.82 82.22s-23.02 62.38-64.82 82.22c-34.21 16.22-78.98 25.16-126.07 25.16zM769 518c-37.25 0-73.2 6.92-98.64 18.99-20.58 9.77-28.26 20.15-28.26 24.39s7.67 14.63 28.26 24.39c25.44 12.07 61.39 18.99 98.64 18.99s73.2-6.92 98.64-18.99c20.58-9.77 28.26-20.15 28.26-24.39s-7.67-14.63-28.26-24.39C842.2 524.92 806.25 518 769 518z" /></svg>