<?xml version="1.0" standalone="no"?><!DOCTYPE svg PUBLIC "-//W3C//DTD SVG 1.1//EN" "http://www.w3.org/Graphics/SVG/1.1/DTD/svg11.dtd"><svg class="icon" width="200px" height="199.61px" viewBox="0 0 1026 1024" version="1.1" xmlns="http://www.w3.org/2000/svg"><path d="M1026.368543 129.085582h-226.985351V0H230.143408v128.690825H0v78.951426h99.08404v816.357749h828.989977V208.037008H1026.368543zM309.094834 78.951426h411.336932v49.739399H309.094834z m540.422514 866.097148h-671.087124V208.037008h671.087124zM517.5266 429.890517l43.028527 74.21434 42.63377-83.688512-51.318427-89.215111h-68.687741L348.570547 564.502699h91.188898l77.767155-134.612182zM667.139553 688.851195h-88.820355l45.39707 78.951426h111.716269l33.949113-59.213569-138.164996-239.617579-43.028528 83.293754 78.951427 136.585968zM299.620663 767.802621h270.013878l-45.39707-78.951426H367.913647l45.002313-77.767155H321.727062l-56.055512 97.505012 33.949113 59.213569z" /></svg>