<?xml version="1.0" standalone="no"?><!DOCTYPE svg PUBLIC "-//W3C//DTD SVG 1.1//EN" "http://www.w3.org/Graphics/SVG/1.1/DTD/svg11.dtd"><svg t="1710158259965" class="icon" viewBox="0 0 1024 1024" version="1.1" xmlns="http://www.w3.org/2000/svg" p-id="5319" xmlns:xlink="http://www.w3.org/1999/xlink" width="200" height="200"><path d="M338.33 108.89m30 0l286.67 0q30 0 30 30l0 67.72q0 30-30 30l-286.67 0q-30 0-30-30l0-67.72q0-30 30-30Z" p-id="5320"></path><path d="M865.64 128H733.33a30 30 0 0 0-30 30v68a30 30 0 0 1-30 30h-324a30 30 0 0 1-30-30v-68a30 30 0 0 0-30-30H158a30 30 0 0 0-30 30v707.64a30 30 0 0 0 30 30h707.64a30 30 0 0 0 30-30V158a30 30 0 0 0-30-30zM448.09 799.76a32 32 0 0 1-32 32H287.63a32 32 0 0 1-32-32 32 32 0 0 1 32-32h128.5a32 32 0 0 1 32 32z m128-95.54a32 32 0 0 1-32 32H287.24a32 32 0 0 1-32-32 32 32 0 0 1 32-32h256.91a32 32 0 0 1 32 32z m192-96.21a32 32 0 0 1-32 32H288a32 32 0 0 1-32-32 32 32 0 0 1 32-32h448.19a32 32 0 0 1 32 32z m8.14-295.79L585.12 503.39a32 32 0 0 1-5.23 6.87 34.07 34.07 0 0 1-46.91 0 31.64 31.64 0 0 1-5.23-6.87L422.1 397.74l-113.19 113.2a32 32 0 0 1-45.27 0 32 32 0 0 1 0-45.26l131.2-131.2a31.76 31.76 0 0 1 4.16-5.11 32 32 0 0 1 45.26 0l112.17 112.17L731 267a32 32 0 0 1 45.27 0 32 32 0 0 1 0.02 45.22z" p-id="5321"></path></svg>