<?xml version="1.0" standalone="no"?><!DOCTYPE svg PUBLIC "-//W3C//DTD SVG 1.1//EN" "http://www.w3.org/Graphics/SVG/1.1/DTD/svg11.dtd"><svg class="icon" width="200px" height="200.00px" viewBox="0 0 1024 1024" version="1.1" xmlns="http://www.w3.org/2000/svg"><path d="M602.54 284.86v-37.67c0-17.79-14.65-32.44-32.44-32.44H452.9c-17.79 0-32.44 14.65-32.44 32.44v37.67h-53.37v-37.67c0-47.09 38.72-85.81 85.81-85.81h117.2c47.09 0 85.81 38.72 85.81 85.81v37.67h-53.37z m-8.37 237.03c3.14 8.9 4.71 18.31 4.71 27.73 0 23.55-8.9 45.52-25.64 61.74C556.5 628.11 534.52 637 511.5 637c-48.14 0-87.38-39.24-87.38-87.38 0-9.42 1.57-18.84 4.71-27.73h-288.3v269.47c0 39.77 32.44 72.21 72.21 72.21H810.8c39.77 0 72.21-32.44 72.21-72.21V521.89H594.17zM882.48 483.69V347.13c0-39.77-32.44-72.21-72.21-72.21H212.21c-39.77 0-72.21 32.44-72.21 72.21V483.7h742.48v-0.01z m-416.5 48.14c-2.09 5.76-3.66 12.03-3.66 18.31 0 27.21 21.98 49.18 49.18 49.18s49.18-21.98 49.18-49.18c0-6.28-1.05-12.56-3.66-18.31l-4.71-9.94h-81.1l-5.23 9.94z" /></svg>