<?xml version="1.0" standalone="no"?><!DOCTYPE svg PUBLIC "-//W3C//DTD SVG 1.1//EN" "http://www.w3.org/Graphics/SVG/1.1/DTD/svg11.dtd"><svg t="1702349534500" class="icon" viewBox="0 0 1092 1024" version="1.1" xmlns="http://www.w3.org/2000/svg" p-id="11353" xmlns:xlink="http://www.w3.org/1999/xlink" width="213.28125" height="200"><path d="M1081.297767 306.181623l-0.912166-4.841977-93.921855-227.116827a116.644783 116.644783 0 0 0-110.334594-74.054131H223.474411a113.439707 113.439707 0 0 0-111.90277 71.97989l-100.169567 230.353143-0.887175 4.567077a206.805516 206.805516 0 0 0-10.508651 64.845003 209.079683 209.079683 0 0 0 68.274997 153.618743l0.249908 399.041367c0.87468 55.236022 45.908188 99.426089 100.98177 99.426089l1.405735-0.012495h0.068725l750.462672-0.43734h0.9559c55.236022 0 100.40698-44.246297 101.419109-99.582282v-399.366248c42.540671-38.941989 67.918877-94.29047 68.150043-153.575009a205.612203 205.612203 0 0 0-10.67734-64.845003z m-125.710214 366.578255v249.933472c-0.343624 17.974667-15.225674 32.600561-34.181232 32.594313l-751.905894 0.449835c-17.768493 0-32.450616-14.457206-32.725515-31.207321l-0.19368-309.817791h0.037487v-47.713777a218.432508 218.432508 0 0 0 80.126906 13.48881v0.243661h0.512313a218.420012 218.420012 0 0 0 164.802147-75.085003 217.407883 217.407883 0 0 0 163.808762 74.666406h1.162074a216.983038 216.983038 0 0 0 163.159-75.078755 217.457865 217.457865 0 0 0 165.451909 74.597681h0.718487a222.018694 222.018694 0 0 0 79.220989-13.557535v106.486004z" p-id="11354"></path></svg>