<?xml version="1.0" standalone="no"?><!DOCTYPE svg PUBLIC "-//W3C//DTD SVG 1.1//EN" "http://www.w3.org/Graphics/SVG/1.1/DTD/svg11.dtd"><svg class="icon" width="200px" height="200.00px" viewBox="0 0 1024 1024" version="1.1" xmlns="http://www.w3.org/2000/svg"><path d="M901.12 160.256v-1.024-2.048c0-0.512 0-1.024-0.512-1.536v-0.512c0-0.512-0.512-1.024-0.512-1.536 0-0.512 0-0.512-0.512-1.024 0-0.512-0.512-1.024-0.512-1.024 0-0.512-0.512-1.024-0.512-1.536 0-0.512 0-0.512-0.512-0.512-0.512-0.512-0.512-1.024-1.024-1.536 0 0 0-0.512-0.512-0.512-0.512-0.512-0.512-1.024-1.024-1.536l-0.512-0.512c-0.512-0.512-0.512-1.024-1.024-1.024l-0.512-0.512-1.024-1.024-0.512-0.512c-0.512-0.512-1.024-0.512-1.536-1.024l-0.512-0.512c-0.512-0.512-1.024-0.512-1.536-1.024h-0.512c-0.512 0-1.024-0.512-1.536-0.512 0 0-0.512 0-0.512-0.512-0.512 0-1.024-0.512-1.536-0.512h-0.512c-0.512 0-1.024-0.512-1.536-0.512h-2.048H302.592c-5.632 0-11.264 2.048-15.36 5.632l-138.24 115.712c-0.512 0.512-1.024 0.512-1.024 1.024l-0.512 0.512c-0.512 0.512-1.024 1.024-1.024 1.536l-0.512 0.512v0.512l-0.512 0.512-0.512 0.512c-0.512 0.512-0.512 1.024-1.024 2.048v0.512c-0.512 0.512-0.512 1.024-0.512 1.536v0.512c0 0.512-0.512 1.024-0.512 1.536v0.512c0 0.512 0 1.024-0.512 1.024V883.2c0 13.312 10.752 23.552 23.552 23.552h605.184c0.512 0 1.024 0 1.536-0.512 0.512 0 0.512 0 1.024-0.512 0.512 0 0.512 0 1.024-0.512 0.512 0 1.024-0.512 1.536-0.512l1.024-0.512c0.512 0 1.024-0.512 1.536-0.512l0.512-0.512c0.512 0 1.024-0.512 1.536-1.024 0 0 0.512 0 0.512-0.512 1.536-1.024 3.072-2.56 4.096-3.584l0.512-0.512 0.512-0.512 111.104-143.872c3.072-4.096 5.12-9.216 5.12-14.336l-1.536-578.56zM821.76 184.32l-66.048 69.12h-225.792L595.968 184.32h225.792zM229.376 253.44l81.92-69.12h219.136L464.896 253.44h-235.52zM742.4 301.056v558.08H188.416v-558.08H742.4zM853.504 220.16v510.976l-63.488 82.432V286.72l63.488-66.56zM272.384 583.168c4.096 0 8.192-1.024 12.8-2.56l3.072-1.024 2.048-2.56 6.144-7.68v179.712l1.536 2.56c5.632 11.264 12.8 16.896 21.504 16.896 8.704 0 15.872-5.632 21.504-16.896l1.536-2.56v-125.952c1.024 0.512 2.048 1.024 3.072 2.048l3.072 2.048h91.136l-1.536 2.56c-20.48 32.768-47.616 61.952-80.896 87.04l-2.56 2.048-1.536 3.072c-3.584 7.68-7.168 19.456-1.024 29.184 2.048 3.072 7.68 8.704 18.432 8.704 2.048 0 4.096 0 6.656-0.512l3.072-0.512 2.56-1.536c39.936-29.184 71.68-64 94.208-104.448l1.536-3.072v-3.584c0-9.216-2.56-15.36-5.632-19.456h57.344l-2.048 2.048c-4.608 5.632-6.144 12.8-4.608 22.528l0.512 4.096 2.56 3.072c27.648 29.696 54.272 61.952 79.872 95.744l1.536 2.048 2.048 1.536c5.632 3.584 10.752 5.12 15.872 5.12 3.584 0 19.968-1.024 19.968-26.112v-4.608l-2.048-3.584c-24.064-34.816-51.2-68.608-81.92-101.376l-0.512-0.512H650.24l3.072-2.048c9.728-5.632 14.336-12.8 14.336-20.992 0-8.192-4.608-15.36-14.336-20.992l-3.072-2.048h-61.44V491.008h48.64l3.072-2.048c9.728-5.632 14.336-12.8 14.336-20.992 0-8.192-4.608-14.848-14.336-20.992l-3.072-2.048H588.8V374.272l-2.048-3.072c-5.632-9.728-12.8-14.336-20.992-14.336-8.192 0-14.848 4.608-20.992 14.336l-2.048 3.072V445.44H457.728V374.272l-2.048-3.072c-5.632-9.728-12.8-14.336-20.992-14.336-8.192 0-14.848 4.608-20.992 14.336l-2.048 3.072V445.44h-45.568l-2.56 2.048c-6.656 4.096-11.264 8.704-13.312 14.336 9.728-29.696 16.384-58.368 19.968-85.504l0.512-4.608-2.048-3.584c-5.632-9.728-12.8-14.336-20.992-14.336-8.192 0-15.36 4.608-20.992 14.336l-1.536 2.56-0.512 3.072c-6.144 55.808-30.208 115.712-72.192 178.176l-2.048 3.072v4.096c0.512 17.92 11.776 24.064 22.016 24.064z m185.344-2.048V491.008h83.456v90.112H457.728zM363.52 489.472l3.072 2.048h45.568v90.112H347.648l-3.072 2.048c-1.024 0.512-2.048 1.024-3.072 2.048V486.912c3.072-8.192 6.144-15.872 8.704-24.064-0.512 1.536-1.024 3.584-1.024 5.632 0 8.192 5.12 14.848 14.336 20.992z" /></svg>