<?xml version="1.0" standalone="no"?><!DOCTYPE svg PUBLIC "-//W3C//DTD SVG 1.1//EN" "http://www.w3.org/Graphics/SVG/1.1/DTD/svg11.dtd"><svg t="1708415498759" class="icon" viewBox="0 0 1024 1024" version="1.1" xmlns="http://www.w3.org/2000/svg" p-id="4279" xmlns:xlink="http://www.w3.org/1999/xlink" width="300" height="300"><path d="M756.224 697.856c-43.008 0-78.336 34.816-78.336 77.824 0 43.008 34.816 77.824 78.336 77.824 43.008 0 78.336-34.816 78.336-77.824 0-42.496-35.328-77.824-78.336-77.824z m0.512 107.008c-14.848-1.024-26.624-12.8-27.136-27.648-0.512-15.872 11.264-29.184 27.136-30.208 15.36 0.512 27.136 12.8 27.648 28.16 0.512 15.872-12.288 29.184-27.648 29.696z" fill="#060001" p-id="4280"></path><path d="M971.264 733.696c-4.096-19.968-17.92-33.792-35.84-33.792h-1.536c-18.432 0-33.28-14.848-33.28-32.768 0-3.584 1.536-9.216 2.56-11.776v-0.512c7.68-18.432 1.536-39.936-14.336-51.2l-52.224-28.672-2.56-1.024c-16.384-6.656-35.84-3.072-49.152 9.728-7.168 7.68-21.504 16.896-27.648 16.896-6.144 0-20.48-9.216-28.16-17.408-12.8-12.8-31.744-16.384-49.152-9.728l-54.272 29.184-2.56 1.536c-16.384 11.264-22.528 32.768-14.336 51.2 1.024 2.56 3.072 8.192 3.072 11.776 0 17.92-14.848 32.768-33.28 32.768h-1.536c-17.408 0-32.256 13.312-36.352 33.28 0 0-4.608 23.552-4.608 42.496 0 7.68 0.512 17.408 2.048 28.16 1.024 6.656 1.536 10.752 2.56 13.824 4.096 19.968 17.92 33.792 35.84 33.792h2.048c18.432 0 33.28 14.848 33.28 32.768 0 3.584-2.048 9.216-3.072 12.288-7.68 17.92-2.048 39.424 13.824 50.688l51.712 28.672 2.56 1.024c16.896 7.168 36.352 3.072 49.664-10.752 6.656-7.168 21.504-17.92 28.16-17.92 5.632 0 19.968 9.216 28.672 18.432 8.192 8.704 19.968 13.824 32.768 13.824 5.632 0 11.264-1.024 16.384-3.072l53.248-29.184 2.56-1.536c16.384-11.264 22.528-32.768 14.336-51.2-1.024-2.56-3.072-8.192-3.072-11.776 0-17.92 14.848-32.768 33.28-32.768h1.536c17.408 0.512 32.256-13.312 36.352-33.28 0 0 4.608-23.552 4.608-42.496 0.512-17.92-3.584-39.936-4.096-41.472zM839.68 901.632l-22.016 11.776c-2.56-2.56-6.144-5.12-10.24-8.192-17.92-13.312-35.328-19.456-52.224-19.456-16.896 0-34.304 6.656-51.712 19.456-3.584 2.56-6.656 5.12-10.24 7.68l-20.48-11.264c1.536-6.656 2.56-13.312 2.56-19.456 0-43.52-30.208-80.896-73.216-90.112-0.512-5.12-1.024-11.264-1.024-16.384s0.512-11.776 1.024-16.384c42.496-9.216 73.216-46.08 73.216-90.112 0-6.144-1.024-12.288-2.56-18.944l23.04-12.288c3.072 2.56 6.656 5.12 10.24 7.68 17.408 12.288 34.816 18.432 51.2 18.432s33.28-6.144 50.688-17.92c3.584-2.56 6.656-5.12 10.24-7.68l21.504 11.776c-1.536 6.656-2.56 13.312-2.56 19.456 0 43.52 30.208 80.896 73.216 90.112 0.512 5.12 1.024 11.264 1.024 16.384s-0.512 11.264-1.024 16.384c-42.496 9.216-73.216 46.08-73.216 90.112 0.512 6.144 1.024 12.288 2.56 18.944z" p-id="4281"></path><path d="M512 771.584c-7.168 1.536-14.336 3.072-22.016 4.096v-80.384c0-23.04-18.944-41.984-41.984-41.984s-41.984 18.944-41.984 41.984v80.384c-120.832-18.432-216.064-113.664-234.496-234.496h80.384c23.04 0 41.984-18.944 41.984-41.984 0-23.04-18.944-41.984-41.984-41.984H171.52C189.44 336.384 285.184 241.152 406.016 222.72v80.384c0 23.04 18.944 41.984 41.984 41.984s41.984-18.944 41.984-41.984V222.72c120.832 18.432 216.064 113.664 234.496 234.496h-80.384c-23.04 0-41.984 18.944-41.984 41.984 0 23.04 18.944 41.984 41.984 41.984h80.384c-0.512 4.096-1.024 7.68-2.048 11.776h85.504c0.512-4.096 1.024-7.68 1.536-11.776h44.544c23.04 0 41.984-18.944 41.984-41.984 0-23.04-18.944-41.984-41.984-41.984h-44.544c-19.456-167.424-152.064-300.032-319.488-319.488v-44.544c0-23.04-18.944-41.984-41.984-41.984s-41.984 18.944-41.984 41.984v44.544c-167.424 19.456-300.032 152.064-319.488 319.488H41.984C18.944 457.216 0 476.16 0 499.2c0 23.04 18.944 41.984 41.984 41.984h44.544c19.456 167.424 152.064 300.032 319.488 319.488v44.544c0 23.04 18.944 41.984 41.984 41.984 23.04 0 41.984-18.944 41.984-41.984v-44.544c7.168-1.024 14.848-2.048 22.016-3.072v-86.016z" p-id="4282"></path><path d="M448 457.216c-23.04 0-41.984 18.944-41.984 41.984 0 23.04 18.944 41.984 41.984 41.984s41.984-18.944 41.984-41.984c0-23.04-18.944-41.984-41.984-41.984z" p-id="4283"></path></svg>