<?xml version="1.0" standalone="no"?><!DOCTYPE svg PUBLIC "-//W3C//DTD SVG 1.1//EN" "http://www.w3.org/Graphics/SVG/1.1/DTD/svg11.dtd"><svg t="1709171825936" class="icon" viewBox="0 0 1024 1024" version="1.1" xmlns="http://www.w3.org/2000/svg" p-id="4437" xmlns:xlink="http://www.w3.org/1999/xlink" width="300" height="300"><path d="M715.662222 410.112H287.232c-17.92 0-35.84-17.635556-35.84-35.328 0-17.635556 17.92-35.328 35.84-35.328h428.544c17.92 0 35.84 17.635556 35.84 35.271111 0 17.692444-17.92 35.384889-35.84 35.384889z m0-167.253333H287.232c-17.92 0-26.908444-17.635556-35.84-35.271111 0-17.635556 17.92-35.328 35.84-35.328h428.544c17.92 0 35.84 17.635556 35.84 35.271111 0 17.692444-17.92 35.384889-35.84 35.384889z m-5.12 555.235555c0 46.08 37.774222 83.342222 84.48 83.342222 46.648889 0 84.423111-37.262222 84.423111-83.285333 0-46.08-37.717333-83.285333-84.423111-83.285333-46.648889 0-84.423111 37.205333-84.423111 83.285333zM795.079111 1024c-126.634667 0-228.977778-101.603556-228.977778-225.848889 0-124.302222 102.968889-225.848889 228.977778-225.848889 126.008889 0 228.977778 101.546667 228.977778 225.848889 0 124.245333-102.343111 225.848889-228.977778 225.848889z m0-385.479111c-89.543111 0-161.848889 71.907556-161.848889 159.630222 0 87.665778 72.931556 159.573333 161.848889 159.573333 88.917333 0 161.792-71.907556 161.792-159.573333 0-88.348444-72.248889-159.630222-161.792-159.630222z m-363.292444 335.644444H142.620444c-47.331556 0-85.731556-39.139556-85.731555-87.04V92.046222C56.888889 41.016889 97.848889 0 148.366222 0H921.031111c50.517333 0 91.477333 41.642667 91.477333 92.16v420.181333c0 17.635556-14.108444 31.516444-32.028444 31.516445a31.459556 31.459556 0 0 1-31.971556-31.516445V92.103111c0-15.758222-12.117333-29.013333-27.477333-29.013333H147.740444c-15.36 0-27.534222 13.255111-27.534222 29.013333v794.965333c0 13.255111 9.614222 24.007111 21.731556 24.007112h289.109333c17.92 0 32.028444 13.880889 32.028445 31.516444 0 17.635556-13.482667 31.573333-31.345778 31.573333z" p-id="4438"></path></svg>