<?xml version="1.0" standalone="no"?><!DOCTYPE svg PUBLIC "-//W3C//DTD SVG 1.1//EN" "http://www.w3.org/Graphics/SVG/1.1/DTD/svg11.dtd"><svg t="1709090323677" class="icon" viewBox="0 0 1024 1024" version="1.1" xmlns="http://www.w3.org/2000/svg" p-id="8206" xmlns:xlink="http://www.w3.org/1999/xlink" width="300" height="300"><path d="M1002.602667 981.269333 42.709333 981.269333 42.709333 739.114667c6.869333 1.493333 14.250667-0.042667 19.584-5.397333l320.597333-320.597333 318.357333 318.4-75.242667 75.242667c-6.08 6.122667-7.914667 15.317333-4.629333 23.338667 3.306667 7.957333 11.114667 13.162667 19.754667 13.162667l284.032 0c11.84 0 21.354667-9.536 21.333333-21.376L946.496 512c0-8.618667-5.205333-16.426667-13.184-19.733333-7.957333-3.328-17.194667-1.514667-23.274667 4.629333l-75.242667 75.264L397.994667 135.381333c-8.362667-8.362667-21.845333-8.362667-30.208 0L42.709333 460.437333 42.709333 21.354667C42.709333 9.557333 33.152 0 21.354667 0S0 9.557333 0 21.354667l0 981.269333C0 1014.442667 9.557333 1024 21.354667 1024l981.269333 0c11.84 0 21.376-9.557333 21.354667-21.376C1023.978667 990.826667 1014.421333 981.269333 1002.602667 981.269333zM42.709333 506.666667c6.869333 1.493333 14.250667-0.042667 19.584-5.397333L382.890667 180.693333l436.821333 436.821333c8 8 22.186667 8 30.208 0l53.888-53.888 0 236.864-211.114667 0 53.845333-53.888c8.405333-8.362667 8.405333-21.802667 0-30.208L397.994667 367.786667c-8-8.021333-22.208-8.021333-30.208 0L42.709333 692.885333 42.709333 506.666667z" p-id="8207"></path></svg>